<svg width="512" height="289" xmlns="http://www.w3.org/2000/svg" xml:space="preserve" version="1.1">

 <g>
  <title>Layer 1</title>
  <g stroke="null" id="layer1">
   <g stroke="null" transform="matrix(1.32125 0 0 1.32125 480.526 -75.0401)" id="g80302">
    <path stroke="null" d="m-335.56113,336.75991c-13.28,0 -26.94,10.64 -26.94,29.28c0,17.04 12.01,29.07 26.94,29.07c12.33,0 17.82,-8.28 17.82,-8.28l0,3.61c0,1.71 1.61,3.61 3.61,3.61l8.91,0l0,-56.01l-12.52,0l0,7.11c0,-0.02 -5.54,-8.39 -17.82,-8.39l0,0zm2.23,11.45c10.94,0 16.67,9.62 16.67,17.82c0,9.14 -6.81,17.82 -16.65,17.82c-8.22,0 -16.46,-6.66 -16.46,-17.93c0,-10.19 7.09,-17.71 16.44,-17.71z" id="path825"/>
    <path stroke="null" d="m-287.83113,394.03991c-1.92,0 -3.61,-1.38 -3.61,-3.61l0,-52.4l12.52,0l0,6.93c2.84,-4.26 8.38,-8.22 16.88,-8.22c13.9,0 21.3,11.08 21.3,21.44l0,35.85l-8.7,0c-2.28,0 -3.82,-1.91 -3.82,-3.82l0,-29.28c0,-5.74 -3.52,-12.72 -11.66,-12.72c-8.78,0 -14.01,8.3 -14.01,16.12l0,29.7l-8.9,0l0,0.01z" id="path829"/>
    <path stroke="null" d="m-204.24113,336.75991c-13.28,0 -26.94,10.64 -26.94,29.28c0,17.04 12.01,29.07 26.94,29.07c12.33,0 17.82,-8.28 17.82,-8.28l0,3.61c0,1.71 1.61,3.61 3.61,3.61l8.91,0l0,-84.03l-12.52,0l0,35.11c0,0 -5.54,-8.37 -17.82,-8.37l0,0zm2.23,11.45c10.94,0 16.67,9.62 16.67,17.82c0,9.14 -6.81,17.82 -16.65,17.82c-8.22,0 -16.46,-6.66 -16.46,-17.93c0,-10.19 7.09,-17.71 16.44,-17.71z" id="path833"/>
    <path stroke="null" d="m-156.51113,394.03991c-1.92,0 -3.61,-1.38 -3.61,-3.61l0,-52.4l12.52,0l0,9.34c2.15,-5.23 6.8,-9.97 15.06,-9.97c2.3,0 4.46,0.42 4.46,0.42l0,12.94c0,0 -2.69,-1.06 -5.94,-1.06c-8.78,0 -13.58,8.3 -13.58,16.11l0,28.23l-8.91,0z" id="path835"/>
    <path stroke="null" d="m-52.13113,394.03991c-1.92,0 -3.61,-1.38 -3.61,-3.61l0,-52.4l12.52,0l0,56.01l-8.91,0z" id="path837"/>
    <path stroke="null" d="m-6.52113,336.75991c-13.28,0 -26.94,10.64 -26.94,29.28c0,17.04 12.01,29.07 26.94,29.07c12.33,0 17.82,-8.28 17.82,-8.28l0,3.61c0,1.71 1.61,3.61 3.61,3.61l8.91,0l0,-84.03l-12.52,0l0,35.11c0.01,0 -5.53,-8.37 -17.82,-8.37l0,0zm2.23,11.45c10.94,0 16.67,9.62 16.67,17.82c0,9.14 -6.81,17.82 -16.65,17.82c-8.22,0 -16.46,-6.66 -16.46,-17.93c0.01,-10.19 7.1,-17.71 16.44,-17.71z" id="path839"/>
    <circle stroke="null" r="8.28" cy="317.66991" cx="-49.57113" id="path841"/>
    <path stroke="null" d="m-95.07113,336.72991c-13.91,0 -29.2,10.39 -29.2,29.2c0,17.14 13.02,29.17 29.17,29.17c19.9,0 29.62,-16 29.62,-29.06c0,-16.03 -12.51,-29.31 -29.59,-29.31l0,0zm0.05,11.7c9.62,0 16.8,7.75 16.8,17.54c0,9.96 -7.62,17.64 -16.77,17.64c-8.49,0 -16.75,-6.91 -16.75,-17.48c-0.01,-10.73 7.85,-17.7 16.72,-17.7l0,0z" id="path843"/>
   </g>
   <path stroke="null" fill="#32DE84" d="m381.35901,87.62325l42.31,-73.3c2.39,-4.11 0.95,-9.33 -3.11,-11.72c-4.05,-2.39 -9.33,-1 -11.66,3.11l-42.87,74.24c-32.71,-14.94 -69.52,-23.27 -109.12,-23.27c-39.59,0 -76.41,8.33 -109.12,23.27l-42.87,-74.24c-2.39,-4.11 -7.61,-5.5 -11.72,-3.11c-4.11,2.39 -5.5,7.61 -3.11,11.72l42.31,73.3c-72.94,39.54 -122.37,113.39 -130.53,199.85l510.1,0c-8.17,-86.46 -57.59,-160.31 -130.61,-199.85zm-241.55,128.22c-11.83,0 -21.38,-9.61 -21.38,-21.38c0,-11.83 9.61,-21.38 21.38,-21.38c11.83,0 21.38,9.61 21.38,21.38c0.05,11.77 -9.56,21.38 -21.38,21.38zm234.17,0c-11.83,0 -21.38,-9.61 -21.38,-21.38c0,-11.83 9.61,-21.38 21.38,-21.38c11.83,0 21.38,9.61 21.38,21.38c0.05,11.77 -9.56,21.38 -21.38,21.38z" class="st0" id="path80319"/>
  </g>
 </g>
</svg>