<?xml version="1.0" encoding="UTF-8" standalone="no"?>
<svg
   width="512"
   height="512"
   aria-label="Docker"
   version="1.1"
   id="svg1"
   sodipodi:docname="docker.svg"
   inkscape:version="1.3 (0e150ed, 2023-07-21)"
   xmlns:inkscape="http://www.inkscape.org/namespaces/inkscape"
   xmlns:sodipodi="http://sodipodi.sourceforge.net/DTD/sodipodi-0.dtd"
   xmlns="http://www.w3.org/2000/svg"
   xmlns:svg="http://www.w3.org/2000/svg">
  <defs
     id="defs1" />
  <sodipodi:namedview
     id="namedview1"
     pagecolor="#ffffff"
     bordercolor="#000000"
     borderopacity="0.25"
     inkscape:showpageshadow="2"
     inkscape:pageopacity="0.0"
     inkscape:pagecheckerboard="0"
     inkscape:deskcolor="#d1d1d1"
     inkscape:zoom="2.1275657"
     inkscape:cx="217.14959"
     inkscape:cy="264.62168"
     inkscape:window-width="2560"
     inkscape:window-height="1361"
     inkscape:window-x="1920"
     inkscape:window-y="0"
     inkscape:window-maximized="1"
     inkscape:current-layer="svg1" />
  <g
     class="layer"
     id="g1"
     transform="matrix(1.2102834,0,0,1.2102834,-69.383352,-56.731206)">
    <title
       id="title1">Layer 1</title>
    <path
       d="m 296,226 h 42 m -92,0 h 42 m -91,0 h 42 m -91,0 h 41 m -91,0 h 42 m 8,-46 h 41 m 8,0 h 42 m 7,0 h 42 m -42,-46 h 42"
       id="svg_2"
       stroke="#066da5"
       stroke-width="38" />
    <path
       d="m 472,228 c 0,0 -18,-17 -55,-11 -4,-29 -35,-46 -35,-46 0,0 -29,35 -8,74 -6,3 -16,7 -31,7 H 68 c -5,19 -5,145 133,145 99,0 173,-46 208,-130 52,4 63,-39 63,-39"
       fill="#066da5"
       id="svg_3" />
  </g>
</svg>
