<svg width="242.75197" height="318.24014" xmlns="http://www.w3.org/2000/svg" xmlns:undefined="http://sodipodi.sourceforge.net/DTD/sodipodi-0.dtd" xmlns:undefined="http://www.inkscape.org/namespaces/inkscape" version="1.0">

 <metadata id="metadata1973">image/svg+xml</metadata>
 <g>
  <title>Layer 1</title>
  <g id="layer1"  >
   <g id="Ebene_x0020_1">
    <metadata id="CorelCorpID_0Corel-Layer"/>
    <g id="_198302696">
     <path fill="#4e7896" id="_227268128" d="m80.45799,240.33565c0,0 -11.9391,7.2672 8.30525,9.34351c24.3967,3.11437 37.3741,2.59576 64.3663,-2.59534c0,0 7.2672,4.67165 17.1297,8.30546c-60.7327,25.9542 -137.557,-1.5577 -89.8013,-15.0536l0.00005,-0.00003zm-7.78643,-33.7402c0,0 -12.9769,9.86233 7.2672,11.9386c26.4735,2.59576 47.2368,3.11437 83.0534,-4.15263c0,0 4.67186,5.19089 12.4579,7.78643c-73.1906,21.8016 -155.206,2.07631 -102.778,-15.5725l-0.0005,0.0001zm143.267,59.1754c0,0 8.82449,7.26741 -9.86254,12.9769c-34.7787,10.3818 -145.863,13.4961 -177.008,0c-10.9006,-4.67144 9.86275,-11.4198 16.6105,-12.4579c6.74817,-1.55708 10.3816,-1.55708 10.3816,-1.55708c-11.9384,-8.30546 -79.4195,17.1295 -34.2595,24.3967c124.061,20.2443 226.321,-8.82428 194.137,-23.3587l0.00094,0.00008zm-129.771,-94.4732c0,0 -56.5799,13.4961 -20.2439,18.1678c15.5725,2.0761 46.1983,1.5575 74.7481,-0.51903c23.3585,-2.07631 46.7176,-6.22894 46.7176,-6.22894c0,0 -8.30546,3.63339 -14.0156,7.26741c-57.6179,15.053 -168.183,8.30504 -136.519,-7.26741c26.9923,-12.9773 49.3125,-11.4198 49.3125,-11.4198l0.0003,-0.00003zm101.222,56.5799c58.1372,-30.1069 31.1451,-59.1754 12.4579,-55.5416c-4.67186,1.03805 -6.74817,2.07631 -6.74817,2.07631c0,0 1.55729,-3.11457 5.19068,-4.15263c36.8552,-12.9773 65.9238,38.9309 -11.9384,59.1752c0,0 0.51861,-0.51903 1.03805,-1.55729l-0.00006,0.00001zm-95.5117,82.0153c56.0613,3.63381 141.71,-2.07631 143.786,-28.5494c0,0 -4.15242,10.3818 -46.1981,18.1676c-47.7558,8.8247 -106.931,7.78643 -141.71,2.07631c0,0 7.26699,6.22915 44.122,8.30546l0.0001,0.00003z"/>
     <path fill="#f58219" id="_230367536" d="m152.09179,0.00004c0,0 32.1832,32.7022 -30.6261,82.0153c-50.3512,39.9692 -11.4198,62.8088 0,88.7629c-29.5878,-26.4728 -50.8702,-49.8319 -36.336,-71.6335c21.2828,-32.1832 79.939,-47.7554 66.9621,-99.1446l0,-0.0001zm-16.6105,148.977c15.053,17.1299 -4.15283,32.7026 -4.15283,32.7026c0,0 38.4121,-19.7253 20.7633,-44.1224c-16.0919,-23.3585 -28.5498,-34.7783 38.9311,-73.7098c0,0 -106.412,26.4735 -55.5416,85.1297l0.00003,-0.0001zm-38.4123,278.748l0,-50.8702c0,-12.9775 -7.2672,-21.8016 -25.4354,-21.8016c-10.3816,0 -19.2061,2.59534 -26.9925,5.7097l2.59576,9.34351c5.7097,-2.07631 12.9769,-4.15283 20.7633,-4.15283c9.86254,0 14.5342,4.15283 14.5342,12.4583l0,6.74817l-5.19068,0c-24.9162,0 -36.336,9.34351 -36.336,24.3967c0,12.4581 7.78623,19.7253 21.8016,19.7253c8.82428,0 15.5727,-4.15283 21.8016,-9.34351l1.03826,7.78643l11.4198,0l0.00006,0.00003zm-14.5346,-16.6109c-5.19068,4.67165 -10.9008,7.26741 -16.0917,7.26741c-6.74776,0 -10.9004,-4.15263 -10.9004,-11.4198c0,-7.26741 4.15263,-12.4581 20.7633,-12.4581l6.22873,0l0,16.6105l0.00007,-0.00001zm63.3285,16.6109l-18.1684,0l-21.8014,-71.1147l15.5727,0l13.4961,43.603l3.11437,12.9771c6.74817,-18.6868 11.9393,-37.8933 14.0156,-56.5801l15.5725,0c-4.15263,23.3589 -11.4196,48.7937 -21.8014,71.1147l-0.00007,0zm84.0914,0l0,-50.8702c0,-12.9775 -7.2672,-21.8016 -25.4352,-21.8016c-10.3818,0 -19.2061,2.59534 -26.9925,5.7097l2.07652,9.34351c6.22894,-2.07631 13.4961,-4.15283 21.2826,-4.15283c9.86254,0 14.5342,4.15283 14.5342,12.4583l0,6.74817l-5.19068,0c-24.9162,0 -36.336,9.34351 -36.336,24.3967c0,12.4581 7.2672,19.7253 21.2824,19.7253c9.34351,0 16.0917,-4.15283 22.3208,-9.34351l1.03826,7.78643l11.4196,0l0,0.00003zm-14.5344,-16.6109c-5.19068,4.67165 -10.9008,7.26741 -16.0919,7.26741c-6.74776,0 -10.9004,-4.15263 -10.9004,-11.4198c0,-7.26741 4.15263,-12.4581 20.7633,-12.4581l6.22894,0l0,16.6105l0.00006,-0.00001zm-190.504,28.5496c-4.15263,6.22894 -10.3818,10.901 -18.1676,13.4961l-6.74838,-8.30546c5.19068,-3.11437 10.3818,-7.78581 12.4579,-11.9386c2.07631,-3.6336 2.59576,-8.8247 2.59576,-20.7633l0,-80.977l15.5725,0l0,79.9388c0,16.0915 -1.55729,22.3204 -5.71012,28.5496l-0.00006,-0.00014z"/>
    </g>
   </g>
  </g>
 </g>
</svg>