<svg width="121.4" height="123.33333" xmlns="http://www.w3.org/2000/svg" version="1.1">
 <title>Python programming language logo</title>
 <metadata>image/svg+xml</metadata>
 <defs>
  <linearGradient y2="0.44947" y1="0.82327" x2="0.23413" x1="0.50012" id="vlpc">
   <stop stop-color="#ffd43b" offset="0"/>
   <stop stop-color="#ffe873" offset="1"/>
  </linearGradient>
  <linearGradient y2="0.64121" y1="0.00003" x2="0.74534" x1="-0.00002" id="vlpb">
   <stop stop-color="#5a9fd4" offset="0"/>
   <stop stop-color="#306998" offset="1"/>
  </linearGradient>
  <radialGradient gradientUnits="userSpaceOnUse" gradientTransform="matrix(1.7493603534517945e-8,-0.23993584414227165,1.0549017895062462,3.7916982070482534e-7,-78.08185562491417,148.8397560417652)" r="29.04" cy="132.3" cx="61.52" id="vlpa">
   <stop stop-opacity="0.498" stop-color="#b8b8b8" offset="0"/>
   <stop stop-opacity="0" stop-color="#7f7f7f" offset="1"/>
  </radialGradient>
 </defs>
 <g>
  <title>Layer 1</title>
  <path id="svg_1" fill="#646464" d="m184.6,61.93c0,-14.56 -4.152,-22.04 -12.46,-22.45c-3.304,-0.156 -6.531,0.3704 -9.669,1.589c-2.505,0.8967 -4.191,1.784 -5.078,2.68l0,34.76c5.312,3.334 10.03,4.883 14.14,4.64c8.704,-0.5751 13.06,-7.642 13.06,-21.22l0.007,0.001zm10.24,0.6043c0,7.398 -1.735,13.54 -5.224,18.42c-3.889,5.527 -9.279,8.373 -16.17,8.529c-5.195,0.1657 -10.55,-1.462 -16.05,-4.874l0,31.59l-8.909,-3.178l0,-70.12c1.462,-1.793 3.343,-3.334 5.624,-4.64c5.302,-3.09 11.75,-4.679 19.33,-4.757l0.1267,0.1267c6.93,-0.08773 12.27,2.758 16.02,8.529c3.499,5.293 5.254,12.08 5.254,20.37l-0.0017,0.0043z"/>
  <path id="svg_2" fill="#646464" d="m249.3,83.27c0,9.923 -0.9942,16.79 -2.983,20.62c-1.998,3.821 -5.8,6.872 -11.41,9.143c-4.552,1.793 -9.474,2.768 -14.76,2.934l-1.472,-5.614c5.371,-0.731 9.153,-1.462 11.35,-2.193c4.318,-1.462 7.281,-3.704 8.909,-6.706c1.306,-2.447 1.949,-7.115 1.949,-14.03l0,-2.32c-6.092,2.768 -12.48,4.143 -19.15,4.143c-4.386,0 -8.256,-1.374 -11.59,-4.143c-3.743,-3.012 -5.614,-6.833 -5.614,-11.46l0,-37.08l8.909,-3.051l0,37.32c0,3.987 1.287,7.057 3.86,9.211c2.573,2.154 5.907,3.187 9.991,3.109c4.084,-0.08773 8.46,-1.667 13.11,-4.757l0,-43.54l8.909,0l0,48.41l-0.008,0.004z"/>
  <path id="svg_3" fill="#646464" d="m284.1,89c-1.062,0.08772 -2.037,0.1267 -2.934,0.1267c-5.039,0 -8.967,-1.199 -11.77,-3.606c-2.797,-2.408 -4.201,-5.731 -4.201,-9.971l0,-35.09l-6.102,0l0,-5.605l6.102,0l0,-14.88l8.899,-3.168l0,18.05l10.01,0l0,5.605l-10.01,0l0,34.85c0,3.343 0.8967,5.712 2.69,7.096c1.54,1.14 3.987,1.793 7.32,1.959l0,4.64l-0.004,-0.0067z"/>
  <path id="svg_4" fill="#646464" d="m338,88.27l-8.909,0l0,-34.39c0,-3.499 -0.8188,-6.511 -2.447,-9.026c-1.881,-2.846 -4.493,-4.269 -7.846,-4.269c-4.084,0 -9.192,2.154 -15.32,6.462l0,41.22l-8.909,0l0,-82.2l8.909,-2.807l0,37.44c5.692,-4.143 11.91,-6.219 18.67,-6.219c4.718,0 8.538,1.589 11.46,4.757c2.934,3.168 4.396,7.115 4.396,11.83l0,37.19l-0.004,0.012z"/>
  <path id="svg_5" fill="#646464" d="m385.4,60.53c0,-5.595 -1.062,-10.21 -3.178,-13.87c-2.515,-4.454 -6.423,-6.803 -11.71,-7.047c-9.767,0.5653 -14.64,7.564 -14.64,20.98c0,6.15 1.014,11.29 3.061,15.41c2.612,5.254 6.531,7.846 11.76,7.759c9.806,-0.07798 14.71,-7.817 14.71,-23.23l-0.003,-0.002zm9.757,0.05848c0,7.963 -2.037,14.59 -6.102,19.88c-4.474,5.926 -10.65,8.899 -18.54,8.899c-7.817,0 -13.91,-2.973 -18.31,-8.899c-3.987,-5.293 -5.975,-11.92 -5.975,-19.88c0,-7.486 2.154,-13.78 6.462,-18.91c4.552,-5.439 10.54,-8.168 17.93,-8.168c7.398,0 13.42,2.729 18.06,8.168c4.308,5.127 6.462,11.42 6.462,18.91l0.013,0z"/>
  <path id="svg_6" fill="#646464" d="m446.2,88.27l-8.909,0l0,-36.34c0,-3.987 -1.199,-7.096 -3.597,-9.338c-2.398,-2.232 -5.595,-3.314 -9.581,-3.226c-4.23,0.07798 -8.256,1.462 -12.08,4.143l0,44.76l-8.909,0l0,-45.86c5.127,-3.733 9.845,-6.17 14.15,-7.31c4.065,-1.062 7.651,-1.589 10.74,-1.589c2.115,0 4.104,0.2047 5.975,0.6141c3.499,0.809 6.345,2.31 8.538,4.513c2.447,2.437 3.665,5.361 3.665,8.782l0,40.85l0.008,0.0009z"/>
  <path id="svg_7" fill="url(#vlpb)" d="m60.51,6.398c-4.584,0.0213 -8.961,0.4122 -12.81,1.094c-11.35,2.005 -13.41,6.2 -13.41,13.94l0,10.22l26.81,0l0,3.406l-26.81,0l-10.06,0c-7.792,0 -14.62,4.684 -16.75,13.59c-2.462,10.21 -2.571,16.59 0,27.25c1.906,7.938 6.458,13.59 14.25,13.59l9.219,0l0,-12.25c0,-8.85 7.657,-16.66 16.75,-16.66l26.78,0c7.455,0 13.41,-6.138 13.41,-13.62l0,-25.53c0,-7.266 -6.13,-12.72 -13.41,-13.94c-4.606,-0.7667 -9.385,-1.115 -13.97,-1.094l0.001,0.004zm-14.5,8.219c2.77,0 5.031,2.299 5.031,5.125c0,2.816 -2.262,5.094 -5.031,5.094c-2.779,0 -5.031,-2.277 -5.031,-5.094c0,-2.826 2.252,-5.125 5.031,-5.125z"/>
  <path id="svg_8" fill="url(#vlpc)" d="m91.23,35.05l0,11.91c0,9.231 -7.826,17 -16.75,17l-26.78,0c-7.336,0 -13.41,6.278 -13.41,13.62l0,25.53c0,7.266 6.319,11.54 13.41,13.62c8.487,2.496 16.63,2.947 26.78,0c6.75,-1.954 13.41,-5.888 13.41,-13.62l0,-10.22l-26.78,0l0,-3.406l26.78,0l13.41,0c7.792,0 10.7,-5.435 13.41,-13.59c2.799,-8.399 2.68,-16.48 0,-27.25c-1.926,-7.757 -5.604,-13.59 -13.41,-13.59l-10.06,0l-0.01,-0.004zm-15.06,64.66c2.779,0 5.031,2.277 5.031,5.094c0,2.826 -2.252,5.125 -5.031,5.125c-2.77,0 -5.031,-2.299 -5.031,-5.125c0,-2.816 2.262,-5.094 5.031,-5.094z"/>
  <path id="svg_9" fill="#646464" d="m463.6,26.91l1.562,0l0,-9.796l3.7,0l0,-1.168l-8.962,0l0,1.168l3.7,0l0,9.796m6.647,0l1.334,0l0,-8.947l2.896,8.946l1.486,0l3.018,-8.916l0,8.917l1.456,0l0,-10.96l-1.926,0l-3.298,9.393l-2.813,-9.393l-2.153,0l0,10.96"/>
  <path id="svg_10" opacity="0.4438" fill="url(#vlpa)" d="m97.36805,134.10686a35.9342,6.96737 0 1 1 -71.86839,0a35.9342,6.96737 0 1 1 71.86839,0z"/>
 </g>
</svg>